# xmcd
#
# Track frame offsets: 
#        150
#        27584
#        60740
#        87009
#        122415
#        149202
#        171637
#        195792
#        213007
#        234084
#        259827
#        278241
#        299565
#        324337
#
# Disc length: 4645 seconds
#
# Revision: 0
# Processed by: cddbd v1.5.2PL0 Copyright (c) Steve Scherf et al.
# Submitted via: ExactAudioCopy v1.1
#
DISCID=ce12230e
DTITLE=Eric Clapton - Pilgrim (Limited Edition 1250) (SACD 2014)
DYEAR=2014
DGENRE=Blues
TTITLE0=01 My Fathers Eyes
TTITLE1=02 River Of Tears
TTITLE2=03 Pilgrim
TTITLE3=04 Broken Hearted
TTITLE4=05 One Chance
TTITLE5=06 Circus
TTITLE6=07 Going Down Slow
TTITLE7=08 Fall Like Rain
TTITLE8=09 Born In Time
TTITLE9=10 Sick And Tired
TTITLE10=11 Needs His Woman
TTITLE11=12 Shes Gone
TTITLE12=13 You Were There
TTITLE13=14 Inside Of Me
EXTD=
EXTT0=
EXTT1=
EXTT2=
EXTT3=
EXTT4=
EXTT5=
EXTT6=
EXTT7=
EXTT8=
EXTT9=
EXTT10=
EXTT11=
EXTT12=
EXTT13=
PLAYORDER=
